<?xml version="1.0" encoding="UTF-8"?>
<svg version="1.1" xmlns="http://www.w3.org/2000/svg" width="217" height="98" viewBox="145 200 217 97">
<path d="M0 0 C46.29694323 0 46.29694323 0 54.55078125 5.7890625 C65.87037644 17.58553642 67.37444914 30.55437095 67.37060547 46.4152832 C67.37498806 48.43200693 67.41147516 50.44654986 67.44921875 52.46289062 C67.48512703 64.62981228 65.08649935 76.69724598 56.3359375 85.71484375 C40.52597758 99.95773716 21.49369649 94 0 94 C0 62.98 0 31.96 0 0 Z M18 10 C18 34.42 18 58.84 18 84 C30.50039778 84.80936545 30.50039778 84.80936545 40.01171875 79.2734375 C40.56472656 78.64695312 41.11773437 78.02046875 41.6875 77.375 C42.24824219 76.76398438 42.80898438 76.15296875 43.38671875 75.5234375 C48.57208041 67.4126781 48.49944364 58.73060389 48.44604492 49.39892578 C48.43754177 47.13611539 48.46635627 44.87584315 48.49804688 42.61328125 C48.54522492 32.82843379 47.68645082 23.63212956 41.6875 15.5 C34.1290229 8.46885852 29.06478355 10 18 10 Z " fill="#00E49A" transform="translate(230,203)"/>
<path d="M0 0 C21.78 0 43.56 0 66 0 C66 2.97 66 5.94 66 9 C58.08 9 50.16 9 42 9 C42 34.08 42 59.16 42 85 C49.92 85 57.84 85 66 85 C66 87.97 66 90.94 66 94 C44.22 94 22.44 94 0 94 C0 91.03 0 88.06 0 85 C7.92 85 15.84 85 24 85 C24 59.92 24 34.84 24 9 C16.08 9 8.16 9 0 9 C0 6.03 0 3.06 0 0 Z " fill="#00E49A" transform="translate(147,203)"/>
<path d="M0 0 C19.47 0 38.94 0 59 0 C59 4.95 59 9.9 59 15 C39.53 15 20.06 15 0 15 C0 10.05 0 5.1 0 0 Z " fill="#0AE49E" transform="translate(305,286)"/>
<path d="M0 0 C8.1269191 -0.52431736 14.62487987 0.68041584 21.234375 5.6953125 C30.38598453 14.19323563 33.47190491 24.40417407 34.22119141 36.6003418 C34.31917045 39.87346715 34.37139901 43.14073918 34.37060547 46.4152832 C34.37498806 48.43200693 34.41147516 50.44654986 34.44921875 52.46289062 C34.48512703 64.62981228 32.08649935 76.69724598 23.3359375 85.71484375 C16.38682487 91.97516769 10.20665073 93.52492372 1 94 C3.56854949 91.43145051 6.2786099 90.54276883 9.61328125 89.1953125 C14.7497352 86.62288221 17.60208909 83.62854021 20.125 78.5 C20.60195313 77.5615625 21.07890625 76.623125 21.5703125 75.65625 C25.24268816 66.26460078 26.53225809 57.29661412 26.4375 47.25 C26.42992676 46.11763916 26.42235352 44.98527832 26.41455078 43.81860352 C26.1372702 29.62568324 23.8629695 17.31228204 13.8125 6.6875 C9.478921 4.0873526 4.78599607 2.57577454 0 1 C0 0.67 0 0.34 0 0 Z " fill="#0956F8" transform="translate(263,203)"/>
<path d="M0 0 C2.31 0 4.62 0 7 0 C7 25.08 7 50.16 7 76 C4.69 76 2.38 76 0 76 C0 50.92 0 25.84 0 0 Z " fill="#0552F9" transform="translate(182,212)"/>
<path d="M0 0 C2.31 0 4.62 0 7 0 C7 24.42 7 48.84 7 74 C4.69 74 2.38 74 0 74 C0 49.58 0 25.16 0 0 Z " fill="#0652FA" transform="translate(241,213)"/>
<path d="M0 0 C3.96 0 7.92 0 12 0 C12 4.62 12 9.24 12 14 C8.04 14 4.08 14 0 14 C0 9.38 0 4.76 0 0 Z " fill="#0652FA" transform="translate(352,286)"/>
<path d="M0 0 C2.64 0 5.28 0 8 0 C8 2.97 8 5.94 8 9 C5.36 9 2.72 9 0 9 C0 6.03 0 3.06 0 0 Z " fill="#0652FA" transform="translate(205,288)"/>
<path d="M0 0 C2.64 0 5.28 0 8 0 C8 2.97 8 5.94 8 9 C5.36 9 2.72 9 0 9 C0 6.03 0 3.06 0 0 Z " fill="#0652FA" transform="translate(205,203)"/>
</svg>
