<svg width="2560" height="322" viewBox="0 0 2560 322" fill="none" xmlns="http://www.w3.org/2000/svg">
<path d="M0 89.4577L60.9778 70.0187C121.956 51.3063 243.556 11.3381 366.222 2.25437C487.644 -6.82931 609.778 11.3381 730.667 60.3899C853.333 109.442 976 185.745 1096.89 186.29C1219.02 185.745 1340.44 109.442 1463.11 99.0864C1584.71 89.4577 1706.67 147.593 1829.33 137.965C1950.4 127.609 2072.89 51.3063 2193.78 40.9509C2316.27 31.3222 2437.33 89.4577 2499.56 118.526L2560 147.593V322H2499.02C2438.04 322 2316.44 322 2193.78 322C2072.36 322 1950.22 322 1829.33 322C1706.67 322 1584 322 1463.11 322C1340.98 322 1219.56 322 1096.89 322C975.289 322 853.333 322 730.667 322C609.6 322 487.111 322 366.222 322C243.733 322 122.667 322 60.4444 322H0V89.4577Z" fill="#292A2B" fill-opacity="0.5"/>
<path d="M0 161L60.9778 150.233C121.956 139.869 243.556 117.731 366.222 101.933C487.644 85.5313 609.778 75.4687 730.667 59.0669C853.333 43.2687 976 21.1312 1096.89 42.9669C1219.02 64.4 1340.44 128.8 1463.11 161C1584.71 193.2 1706.67 193.2 1829.33 177.1C1950.4 161 2072.89 128.8 2193.78 123.467C2316.27 117.731 2437.33 139.869 2499.56 150.233L2560 161V322H2499.02C2438.04 322 2316.44 322 2193.78 322C2072.36 322 1950.22 322 1829.33 322C1706.67 322 1584 322 1463.11 322C1340.98 322 1219.56 322 1096.89 322C975.289 322 853.333 322 730.667 322C609.6 322 487.111 322 366.222 322C243.733 322 122.667 322 60.4444 322H0V161Z" fill="#0B141A" fill-opacity="0.5"/>
<path d="M0 183.178L38.7556 148.472C77.5111 113.766 154.667 44.3553 232.889 15.3978C310.222 -13.1258 387.556 -2.28034 465.778 50.1034C543.111 101.836 620.444 195.108 698.667 235.236C775.822 275.364 853.333 264.519 931.556 246.841C1008.53 229.813 1086.22 205.953 1164.44 194.782C1241.24 183.178 1319.11 183.178 1395.56 154.22C1473.96 125.697 1552 67.1308 1628.44 44.3553C1706.67 21.5798 1784.89 32.4252 1861.33 79.0609C1939.38 125.697 2017.78 205.953 2094.22 206.279C2172.09 205.953 2248.89 125.697 2327.11 119.515C2404.8 113.766 2481.78 183.178 2520.89 217.883L2560 252.589V322H2521.24C2482.49 322 2405.33 322 2327.11 322C2249.78 322 2172.44 322 2094.22 322C2016.89 322 1939.56 322 1861.33 322C1784.18 322 1706.67 322 1628.44 322C1551.47 322 1473.78 322 1395.56 322C1318.76 322 1240.89 322 1164.44 322C1086.04 322 1008 322 931.556 322C853.333 322 775.111 322 698.667 322C620.622 322 542.222 322 465.778 322C387.911 322 311.111 322 232.889 322C155.2 322 78.2222 322 39.1111 322H0V183.178Z" fill="#16181A" fill-opacity="0.5"/>
<path d="M0 289.8L28.4444 295.133C56.8889 300.869 113.778 310.931 170.667 311.233C227.556 310.931 284.444 300.869 341.333 295.133C398.222 289.8 455.111 289.8 512 273.7C568.889 257.6 625.778 225.4 682.667 193.2C739.556 161 796.444 128.8 853.333 101.933C910.222 75.4688 967.111 53.3313 1024 64.4C1080.89 75.4688 1137.78 117.731 1194.67 150.233C1251.56 182.131 1308.44 204.269 1365.33 193.2C1422.22 182.131 1479.11 139.869 1536 128.8C1592.89 117.731 1649.78 139.869 1706.67 139.567C1763.56 139.869 1820.44 117.731 1877.33 112.7C1934.22 107.669 1991.11 117.731 2048 144.9C2104.89 172.069 2161.78 214.331 2218.67 209.3C2275.56 204.269 2332.44 149.931 2389.33 107.367C2446.22 64.4 2503.11 32.2 2531.56 16.1L2560 0V322H2531.56C2503.11 322 2446.22 322 2389.33 322C2332.44 322 2275.56 322 2218.67 322C2161.78 322 2104.89 322 2048 322C1991.11 322 1934.22 322 1877.33 322C1820.44 322 1763.56 322 1706.67 322C1649.78 322 1592.89 322 1536 322C1479.11 322 1422.22 322 1365.33 322C1308.44 322 1251.56 322 1194.67 322C1137.78 322 1080.89 322 1024 322C967.111 322 910.222 322 853.333 322C796.444 322 739.556 322 682.667 322C625.778 322 568.889 322 512 322C455.111 322 398.222 322 341.333 322C284.444 322 227.556 322 170.667 322C113.778 322 56.8889 322 28.4444 322H0V289.8Z" fill="#273036" fill-opacity="0.5"/>
</svg>
